<svg width="1969" height="1969" viewBox="0 0 1969 1969" fill="none" xmlns="http://www.w3.org/2000/svg">
<circle cx="984.5" cy="984.5" r="984.5" fill="#16478F"/>
<path d="M1191.1 758.766C1017.96 685.183 848.859 728.106 785.948 758.766C685.291 492.514 632.445 432.002 592.182 432.002C551.919 432.002 287.692 797.493 265.044 1158.14C282.659 1533.31 526.52 1620.45 1012.43 1620.45C1457.84 1620.45 1706.97 1451.02 1704.45 1158.14C1701.93 865.266 1427.64 432.002 1369.76 432.002C1311.89 432.002 1241.42 618.378 1191.1 758.766Z" fill="#C6DCFE" stroke="#C6DCFE" stroke-width="60"/>
<circle cx="677.188" cy="1122.19" r="232.128" stroke="#16478F" stroke-width="50"/>
<circle cx="1292.33" cy="1122.19" r="232.128" stroke="#16478F" stroke-width="50"/>
<path d="M893.717 1404.54C893.717 1421.18 880.222 1434.68 863.575 1434.68C846.928 1434.68 833.433 1421.18 833.433 1404.54C833.433 1387.89 846.928 1374.4 863.575 1374.4C880.222 1374.4 893.717 1387.89 893.717 1404.54Z" fill="#16478F"/>
<path d="M1014.28 1404.54C1014.28 1421.18 1000.79 1434.68 984.142 1434.68C967.495 1434.68 954 1421.18 954 1404.54C954 1387.89 967.495 1374.4 984.142 1374.4C1000.79 1374.4 1014.28 1387.89 1014.28 1404.54Z" fill="#16478F"/>
<path d="M984.142 1464.82C910.326 1536.18 845.121 1451.9 835.894 1415C854.287 1407.82 890.496 1392.36 888.181 1387.93C917.44 1443.91 934.931 1441.45 957.076 1397.16L984.142 1415V1464.82Z" fill="#16478F"/>
<path d="M1075.18 1404.54C1075.18 1421.18 1088.68 1434.68 1105.32 1434.68C1121.97 1434.68 1135.47 1421.18 1135.47 1404.54C1135.47 1387.89 1121.97 1374.4 1105.32 1374.4C1088.68 1374.4 1075.18 1387.89 1075.18 1404.54Z" fill="#16478F"/>
<path d="M984.757 1464.82C1058.57 1536.18 1123.78 1451.9 1133.01 1415C1114.61 1407.82 1078.4 1392.36 1080.72 1387.93C1051.46 1443.91 1033.97 1441.45 1011.82 1397.16L984.757 1415L957.076 1453.75L984.757 1464.82Z" fill="#16478F"/>
<path d="M851.433 530.629L836.187 550.441L836.187 550.441L851.433 530.629ZM766.166 362.368L785.979 377.615L785.979 377.615L766.166 362.368ZM930.625 575.917H955.625V558.695L939.533 552.558L930.625 575.917ZM930.625 722.667H905.625V747.667H930.625V722.667ZM1053.65 722.667V747.667H1078.65V722.667H1053.65ZM1053.65 569.78L1043.34 547.007L1028.65 553.659V569.78H1053.65ZM1118.08 530.654L1102.83 510.841L1118.08 530.654ZM1203.35 362.393L1183.54 377.64L1183.54 377.64L1203.35 362.393ZM1018.86 401.721L1003.61 381.909L1003.61 381.909L1018.86 401.721ZM984.77 431.625L967.068 449.278L984.768 467.027L1002.47 449.28L984.77 431.625ZM950.653 401.696L935.407 421.509L935.407 421.509L950.653 401.696ZM866.68 510.816C831.723 483.915 806.292 453.496 792.891 427.053C778.572 398.796 781.529 383.398 785.979 377.615L746.354 347.121C723.405 376.942 731.75 417.013 748.291 449.654C765.752 484.109 796.653 520.018 836.187 550.441L866.68 510.816ZM939.533 552.558C916.474 543.765 891.259 529.731 866.68 510.816L836.187 550.441C864.239 572.03 893.679 588.584 921.717 599.276L939.533 552.558ZM955.625 722.667V575.917H905.625V722.667H955.625ZM1053.65 697.667H930.625V747.667H1053.65V697.667ZM1028.65 569.78V722.667H1078.65V569.78H1028.65ZM1102.83 510.841C1082.96 526.137 1062.63 538.266 1043.34 547.007L1063.97 592.552C1086.98 582.129 1110.59 567.964 1133.33 550.466L1102.83 510.841ZM1183.54 377.64C1187.99 383.423 1190.94 398.821 1176.62 427.078C1163.22 453.521 1137.79 483.94 1102.83 510.841L1133.33 550.466C1172.86 520.043 1203.76 484.134 1221.22 449.679C1237.76 417.038 1246.11 376.967 1223.16 347.146L1183.54 377.64ZM1034.11 421.534C1069.06 394.633 1104.98 377.841 1133.98 371.66C1164.96 365.055 1179.09 371.857 1183.54 377.64L1223.16 347.146C1200.21 317.326 1159.34 315.129 1123.55 322.759C1085.77 330.812 1043.15 351.486 1003.61 381.909L1034.11 421.534ZM1002.47 449.28C1011.95 439.777 1022.54 430.438 1034.11 421.534L1003.61 381.909C990.349 392.118 978.118 402.893 967.07 413.969L1002.47 449.28ZM935.407 421.509C946.987 430.42 957.582 439.767 967.068 449.278L1002.47 413.971C991.416 402.886 979.177 392.101 965.9 381.884L935.407 421.509ZM785.979 377.615C790.429 371.832 804.556 365.03 835.538 371.635C864.531 377.816 900.45 394.608 935.407 421.509L965.9 381.884C926.366 351.461 883.741 330.787 845.963 322.734C810.174 315.104 769.302 317.301 746.354 347.121L785.979 377.615Z" fill="#C6DCFE"/>
</svg>
