<svg width="2000" height="2000" viewBox="0 0 2000 2000" fill="none" xmlns="http://www.w3.org/2000/svg">
<rect width="2000" height="2000" fill="#D9D9D9"/>
<circle cx="999" cy="1000" r="910" fill="#A0A0A0"/>
<path d="M1206.1 789.766C1032.96 716.183 863.859 759.106 800.948 789.766C700.291 523.514 647.445 463.002 607.182 463.002C566.919 463.002 302.692 828.493 280.044 1189.14C297.659 1564.31 541.52 1651.45 1027.43 1651.45C1472.84 1651.45 1721.97 1482.02 1719.45 1189.14C1716.93 896.266 1442.64 463.002 1384.76 463.002C1326.89 463.002 1256.42 649.378 1206.1 789.766Z" fill="#EBEBEB" stroke="#EBEBEB" stroke-width="60"/>
<path d="M866.433 561.629L851.187 581.441L851.187 581.441L866.433 561.629ZM781.166 393.368L800.979 408.615L800.979 408.615L781.166 393.368ZM945.625 606.917H970.625V589.695L954.533 583.558L945.625 606.917ZM945.625 753.667H920.625V778.667H945.625V753.667ZM1068.65 753.667V778.667H1093.65V753.667H1068.65ZM1068.65 600.78L1058.34 578.007L1043.65 584.659V600.78H1068.65ZM1133.08 561.654L1117.83 541.841L1133.08 561.654ZM1218.35 393.393L1198.54 408.64L1198.54 408.64L1218.35 393.393ZM1033.86 432.721L1018.61 412.909L1018.61 412.909L1033.86 432.721ZM999.77 462.625L982.068 480.278L999.768 498.027L1017.47 480.28L999.77 462.625ZM965.653 432.696L950.407 452.509L950.407 452.509L965.653 432.696ZM881.68 541.816C846.723 514.915 821.292 484.496 807.891 458.053C793.572 429.796 796.529 414.398 800.979 408.615L761.354 378.121C738.405 407.942 746.75 448.013 763.291 480.654C780.752 515.109 811.653 551.018 851.187 581.441L881.68 541.816ZM954.533 583.558C931.474 574.765 906.259 560.731 881.68 541.816L851.187 581.441C879.239 603.03 908.679 619.584 936.717 630.276L954.533 583.558ZM970.625 753.667V606.917H920.625V753.667H970.625ZM1068.65 728.667H945.625V778.667H1068.65V728.667ZM1043.65 600.78V753.667H1093.65V600.78H1043.65ZM1117.83 541.841C1097.96 557.137 1077.63 569.266 1058.34 578.007L1078.97 623.552C1101.98 613.129 1125.59 598.964 1148.33 581.466L1117.83 541.841ZM1198.54 408.64C1202.99 414.423 1205.94 429.821 1191.62 458.078C1178.22 484.521 1152.79 514.94 1117.83 541.841L1148.33 581.466C1187.86 551.043 1218.76 515.134 1236.22 480.679C1252.76 448.038 1261.11 407.967 1238.16 378.146L1198.54 408.64ZM1049.11 452.534C1084.06 425.633 1119.98 408.841 1148.98 402.66C1179.96 396.055 1194.09 402.857 1198.54 408.64L1238.16 378.146C1215.21 348.326 1174.34 346.129 1138.55 353.759C1100.77 361.812 1058.15 382.486 1018.61 412.909L1049.11 452.534ZM1017.47 480.28C1026.95 470.777 1037.54 461.438 1049.11 452.534L1018.61 412.909C1005.35 423.118 993.118 433.893 982.07 444.969L1017.47 480.28ZM950.407 452.509C961.987 461.42 972.582 470.767 982.068 480.278L1017.47 444.971C1006.42 433.886 994.177 423.101 980.9 412.884L950.407 452.509ZM800.979 408.615C805.429 402.832 819.556 396.03 850.538 402.635C879.531 408.816 915.45 425.608 950.407 452.509L980.9 412.884C941.366 382.461 898.741 361.787 860.963 353.734C825.174 346.104 784.302 348.301 761.354 378.121L800.979 408.615Z" fill="#EBEBEB"/>
<rect x="384" y="1087" width="464" height="92" rx="46" fill="#A0A0A0"/>
<rect width="455.109" height="92" rx="46" transform="matrix(-0.999969 0.00784042 0.00784042 0.999969 1614.77 1087)" fill="#A0A0A0"/>
<path d="M908.284 1297.14C908.284 1313.79 894.789 1327.28 878.142 1327.28C861.495 1327.28 848 1313.79 848 1297.14C848 1280.49 861.495 1267 878.142 1267C894.789 1267 908.284 1280.49 908.284 1297.14Z" fill="#A0A0A0"/>
<path d="M1028.85 1297.14C1028.85 1313.79 1015.36 1327.28 998.709 1327.28C982.062 1327.28 968.567 1313.79 968.567 1297.14C968.567 1280.49 982.062 1267 998.709 1267C1015.36 1267 1028.85 1280.49 1028.85 1297.14Z" fill="#A0A0A0"/>
<path d="M998.709 1357.43C924.892 1428.78 859.688 1344.51 850.461 1307.6C868.854 1300.42 905.062 1284.96 902.747 1280.53C932.007 1336.51 949.498 1334.05 971.643 1289.76L998.709 1307.6V1357.43Z" fill="#A0A0A0"/>
<path d="M1089.75 1297.14C1089.75 1313.79 1103.24 1327.28 1119.89 1327.28C1136.54 1327.28 1150.03 1313.79 1150.03 1297.14C1150.03 1280.49 1136.54 1267 1119.89 1267C1103.24 1267 1089.75 1280.49 1089.75 1297.14Z" fill="#A0A0A0"/>
<path d="M999.324 1357.43C1073.14 1428.78 1138.35 1344.51 1147.57 1307.6C1129.18 1300.42 1092.97 1284.96 1095.29 1280.53C1066.03 1336.51 1048.54 1334.05 1026.39 1289.76L999.324 1307.6L971.643 1346.35L999.324 1357.43Z" fill="#A0A0A0"/>
<path d="M463.887 546.236C465.376 555.228 462.857 563.729 456.33 571.739C450.252 579.674 441.815 587.306 431.018 594.637C420.671 601.892 408.377 608.547 394.135 614.6C380.343 620.578 366.439 625.882 352.423 630.512C338.858 635.067 325.855 638.836 313.414 641.819C301.048 645.252 291.044 647.601 283.4 648.866C275.757 650.131 264.929 651.693 250.917 653.55C237.354 655.333 223.568 655.768 209.559 654.853C195.624 654.388 183.19 651.827 172.256 647.17C161.248 642.063 154.777 633.665 152.842 621.975C151.354 612.983 152.677 601.446 156.814 587.366C160.95 573.285 166.699 557.782 174.06 540.858C181.421 523.934 189.868 506.599 199.403 488.853C208.863 470.658 218.21 453.174 227.444 436.402C236.678 419.63 245.461 404.318 253.793 390.467C262.05 376.166 268.431 364.485 272.936 355.425C266.865 357.816 259.107 361.178 249.662 365.513C240.592 369.324 231.073 373.21 221.104 377.17C211.135 381.129 201.354 384.827 191.76 388.263C182.541 391.175 174.56 393.189 167.816 394.305C162.421 395.198 156.202 395.304 149.16 394.622C142.044 393.49 135.041 391.647 128.151 389.092C121.71 386.462 115.833 383.047 110.518 378.845C105.653 374.569 102.699 369.284 101.657 362.99C100.318 354.897 102.687 346.883 108.764 338.948C114.767 330.563 123.167 322.706 133.964 315.375C144.686 307.595 156.906 300.491 170.624 294.063C184.267 287.186 197.835 281.244 211.326 276.24C224.743 270.785 237.634 266.342 250 262.909C262.366 259.476 272.371 257.127 280.014 255.862C288.557 254.448 299.047 253.635 311.484 253.424C323.921 253.213 336.132 254.426 348.116 257.061C360.551 259.622 371.447 264.055 380.805 270.358C390.163 276.662 395.81 285.659 397.745 297.349C398.34 300.946 398.449 304.392 398.07 307.688C398.067 310.46 397.914 313.719 397.61 317.465C397.232 320.761 394.376 328.625 389.043 341.056C384.085 352.963 377.701 367.416 369.89 384.414C362.455 400.889 354.118 418.898 344.881 438.442C336.02 457.463 327.459 475.509 319.198 492.582C310.938 509.655 303.729 524.706 297.571 537.736C291.413 550.765 287.32 559.527 285.292 564.02C302.908 556.023 320.897 548.888 339.26 542.614C357.997 535.817 376.808 530.856 395.692 527.73C400.188 526.986 406.07 526.243 413.338 525.502C420.607 524.761 427.799 524.956 434.915 526.088C441.957 526.77 448.286 528.725 453.901 531.953C459.442 534.731 462.771 539.492 463.887 546.236Z" fill="#606060"/>
<path d="M714.189 693.73C713.848 700.231 710.787 705.775 705.005 710.362C699.548 714.965 692.491 718.996 683.835 722.453C675.504 725.928 665.906 728.685 655.042 730.723C644.504 732.778 633.99 734.346 623.503 735.426C613.34 736.523 603.691 737.158 594.555 737.331C585.402 737.829 578.062 737.933 572.536 737.643C567.009 737.353 559.216 736.782 549.156 735.928C539.421 735.092 529.737 733.28 520.104 730.494C510.454 728.032 502.172 724.338 495.259 719.412C488.363 714.161 485.137 707.309 485.58 698.857C485.921 692.356 488.614 684.511 493.659 675.322C498.704 666.134 505.093 656.201 512.824 645.523C520.555 634.846 529.107 624.048 538.481 613.131C547.871 601.888 557.074 591.125 566.088 580.84C575.102 570.556 583.578 561.221 591.515 552.836C599.469 544.126 605.712 536.956 610.245 531.327C605.643 532.063 599.715 533.219 592.461 534.795C585.549 536.062 578.312 537.313 570.75 538.546C563.188 539.779 555.797 540.859 548.578 541.784C541.7 542.401 535.823 542.582 530.947 542.327C527.046 542.122 522.692 541.242 517.884 539.686C513.093 537.805 508.49 535.445 504.075 532.606C499.986 529.783 496.409 526.499 493.346 522.753C490.608 519.024 489.358 514.884 489.597 510.333C489.903 504.481 492.785 499.254 498.242 494.65C503.716 489.722 510.781 485.529 519.438 482.071C528.111 478.288 537.726 475.207 548.281 472.826C558.854 470.121 569.23 468.057 579.41 466.635C589.607 464.888 599.282 463.765 608.435 463.267C617.588 462.769 624.928 462.665 630.454 462.955C636.63 463.279 644.073 464.321 652.782 466.081C661.491 467.842 669.823 470.561 677.78 474.237C686.061 477.931 692.983 482.695 698.544 488.528C704.106 494.361 706.665 501.503 706.222 509.955C706.086 512.556 705.633 514.977 704.863 517.218C704.436 519.152 703.829 521.402 703.043 523.968C702.273 526.21 699.075 531.257 693.448 539.112C688.162 546.658 681.492 555.761 673.436 566.422C665.721 576.774 657.144 588.059 647.702 600.277C638.602 612.187 629.862 623.463 621.481 634.107C613.099 644.75 605.761 654.144 599.467 662.29C593.173 670.435 588.973 675.919 586.87 678.742C600.385 675.865 614.029 673.647 627.801 672.087C641.916 670.22 655.8 669.644 669.453 670.359C672.704 670.53 676.921 670.914 682.105 671.512C687.289 672.11 692.277 673.349 697.068 675.23C701.876 676.786 705.991 679.12 709.413 682.234C712.853 685.022 714.445 688.854 714.189 693.73Z" fill="#606060"/>
</svg>
