<svg width="1871" height="1984" viewBox="0 0 1871 1984" fill="none" xmlns="http://www.w3.org/2000/svg">
<circle cx="961" cy="1074" r="910" fill="#A0A0A0"/>
<path d="M1168.1 863.766C994.965 790.183 825.859 833.106 762.948 863.766C662.291 597.514 609.445 537.002 569.182 537.002C528.919 537.002 264.692 902.493 242.044 1263.14C259.659 1638.31 503.52 1725.45 989.428 1725.45C1434.84 1725.45 1683.97 1556.02 1681.45 1263.14C1678.93 970.266 1404.64 537.002 1346.76 537.002C1288.89 537.002 1218.42 723.378 1168.1 863.766Z" fill="#EBEBEB" stroke="#EBEBEB" stroke-width="60"/>
<path d="M828.433 635.629L813.187 655.441L813.187 655.441L828.433 635.629ZM743.166 467.368L762.979 482.615L762.979 482.615L743.166 467.368ZM907.625 680.917H932.625V663.695L916.533 657.558L907.625 680.917ZM907.625 827.667H882.625V852.667H907.625V827.667ZM1030.65 827.667V852.667H1055.65V827.667H1030.65ZM1030.65 674.78L1020.34 652.007L1005.65 658.659V674.78H1030.65ZM1095.08 635.654L1079.83 615.841L1095.08 635.654ZM1180.35 467.393L1160.54 482.64L1160.54 482.64L1180.35 467.393ZM995.861 506.721L980.614 486.909L980.614 486.909L995.861 506.721ZM961.77 536.625L944.068 554.278L961.768 572.027L979.47 554.28L961.77 536.625ZM927.653 506.696L912.406 526.509L912.406 526.509L927.653 506.696ZM843.68 615.816C808.723 588.915 783.292 558.496 769.891 532.053C755.572 503.796 758.529 488.398 762.979 482.615L723.354 452.121C700.405 481.942 708.75 522.013 725.291 554.654C742.752 589.109 773.653 625.018 813.187 655.441L843.68 615.816ZM916.533 657.558C893.474 648.765 868.259 634.731 843.68 615.816L813.187 655.441C841.239 677.03 870.679 693.584 898.717 704.277L916.533 657.558ZM932.625 827.667V680.917H882.625V827.667H932.625ZM1030.65 802.667H907.625V852.667H1030.65V802.667ZM1005.65 674.78V827.667H1055.65V674.78H1005.65ZM1079.83 615.841C1059.96 631.137 1039.63 643.266 1020.34 652.007L1040.97 697.552C1063.98 687.129 1087.59 672.964 1110.33 655.466L1079.83 615.841ZM1160.54 482.64C1164.99 488.423 1167.94 503.821 1153.62 532.078C1140.22 558.521 1114.79 588.94 1079.83 615.841L1110.33 655.466C1149.86 625.043 1180.76 589.134 1198.22 554.679C1214.76 522.038 1223.11 481.967 1200.16 452.146L1160.54 482.64ZM1011.11 526.534C1046.06 499.633 1081.98 482.841 1110.98 476.66C1141.96 470.055 1156.09 476.857 1160.54 482.64L1200.16 452.146C1177.21 422.326 1136.34 420.129 1100.55 427.759C1062.77 435.812 1020.15 456.486 980.614 486.909L1011.11 526.534ZM979.47 554.28C988.95 544.777 999.537 535.438 1011.11 526.534L980.614 486.909C967.348 497.118 955.118 507.893 944.07 518.969L979.47 554.28ZM912.406 526.509C923.987 535.42 934.582 544.767 944.068 554.278L979.471 518.971C968.416 507.886 956.177 497.101 942.9 486.884L912.406 526.509ZM762.979 482.615C767.429 476.832 781.556 470.03 812.538 476.635C841.531 482.816 877.45 499.608 912.406 526.509L942.9 486.884C903.366 456.461 860.741 435.787 822.963 427.734C787.174 420.104 746.302 422.301 723.354 452.121L762.979 482.615Z" fill="#EBEBEB"/>
<rect x="346" y="1161" width="464" height="92" rx="46" fill="#A0A0A0"/>
<rect width="455.109" height="92" rx="46" transform="matrix(-0.999969 0.00784042 0.00784042 0.999969 1576.77 1161)" fill="#A0A0A0"/>
<path d="M870.284 1371.14C870.284 1387.79 856.789 1401.28 840.142 1401.28C823.495 1401.28 810 1387.79 810 1371.14C810 1354.49 823.495 1341 840.142 1341C856.789 1341 870.284 1354.49 870.284 1371.14Z" fill="#A0A0A0"/>
<path d="M990.851 1371.14C990.851 1387.79 977.356 1401.28 960.709 1401.28C944.062 1401.28 930.567 1387.79 930.567 1371.14C930.567 1354.49 944.062 1341 960.709 1341C977.356 1341 990.851 1354.49 990.851 1371.14Z" fill="#A0A0A0"/>
<path d="M960.709 1431.43C886.892 1502.78 821.688 1418.51 812.461 1381.6C830.854 1374.42 867.062 1358.96 864.747 1354.53C894.007 1410.51 911.498 1408.05 933.643 1363.76L960.709 1381.6V1431.43Z" fill="#A0A0A0"/>
<path d="M1051.75 1371.14C1051.75 1387.79 1065.24 1401.28 1081.89 1401.28C1098.54 1401.28 1112.03 1387.79 1112.03 1371.14C1112.03 1354.49 1098.54 1341 1081.89 1341C1065.24 1341 1051.75 1354.49 1051.75 1371.14Z" fill="#A0A0A0"/>
<path d="M961.324 1431.43C1035.14 1502.78 1100.35 1418.51 1109.57 1381.6C1091.18 1374.42 1054.97 1358.96 1057.29 1354.53C1028.03 1410.51 1010.54 1408.05 988.39 1363.76L961.324 1381.6L933.643 1420.35L961.324 1431.43Z" fill="#A0A0A0"/>
<path d="M425.887 620.236C427.376 629.228 424.857 637.729 418.33 645.739C412.252 653.674 403.815 661.306 393.018 668.637C382.671 675.892 370.377 682.547 356.135 688.6C342.343 694.578 328.439 699.882 314.423 704.512C300.858 709.067 287.855 712.836 275.414 715.819C263.048 719.252 253.044 721.601 245.4 722.866C237.757 724.131 226.929 725.693 212.917 727.55C199.354 729.333 185.568 729.768 171.559 728.853C157.624 728.388 145.19 725.827 134.256 721.17C123.248 716.063 116.777 707.665 114.842 695.975C113.354 686.983 114.677 675.446 118.814 661.366C122.95 647.285 128.699 631.782 136.06 614.858C143.421 597.934 151.868 580.599 161.403 562.853C170.863 544.658 180.21 527.174 189.444 510.402C198.678 493.63 207.461 478.318 215.793 464.467C224.05 450.166 230.431 438.485 234.936 429.425C228.865 431.816 221.107 435.178 211.662 439.513C202.592 443.324 193.073 447.21 183.104 451.17C173.135 455.129 163.354 458.827 153.76 462.263C144.541 465.175 136.56 467.189 129.816 468.305C124.421 469.198 118.202 469.304 111.16 468.622C104.044 467.49 97.0408 465.647 90.1508 463.092C83.7105 460.462 77.8329 457.047 72.5181 452.845C67.653 448.569 64.6994 443.284 63.6575 436.99C62.3179 428.897 64.6867 420.883 70.7642 412.948C76.7672 404.563 85.1671 396.706 95.9638 389.375C106.686 381.595 118.906 374.491 132.624 368.063C146.267 361.186 159.835 355.244 173.326 350.24C186.743 344.785 199.634 340.342 212 336.909C224.366 333.476 234.371 331.127 242.014 329.862C250.557 328.448 261.047 327.635 273.484 327.424C285.921 327.213 298.132 328.426 310.116 331.061C322.551 333.622 333.447 338.055 342.805 344.358C352.163 350.662 357.81 359.659 359.745 371.349C360.34 374.946 360.449 378.392 360.07 381.688C360.067 384.46 359.914 387.719 359.61 391.465C359.232 394.761 356.376 402.625 351.043 415.056C346.085 426.963 339.701 441.416 331.89 458.414C324.455 474.889 316.118 492.898 306.881 512.442C298.02 531.463 289.459 549.509 281.198 566.582C272.938 583.655 265.729 598.706 259.571 611.736C253.413 624.765 249.32 633.527 247.292 638.02C264.908 630.023 282.897 622.888 301.26 616.614C319.997 609.817 338.808 604.856 357.692 601.73C362.188 600.986 368.07 600.243 375.338 599.502C382.607 598.761 389.799 598.956 396.915 600.088C403.957 600.77 410.286 602.725 415.901 605.953C421.442 608.731 424.771 613.492 425.887 620.236Z" fill="#606060"/>
<path d="M676.189 767.73C675.848 774.231 672.787 779.775 667.005 784.362C661.548 788.965 654.491 792.996 645.835 796.453C637.504 799.928 627.906 802.685 617.042 804.723C606.504 806.778 595.99 808.346 585.503 809.426C575.34 810.523 565.691 811.158 556.555 811.331C547.402 811.829 540.062 811.933 534.536 811.643C529.009 811.353 521.216 810.782 511.156 809.928C501.421 809.092 491.737 807.28 482.104 804.494C472.454 802.032 464.172 798.338 457.259 793.412C450.363 788.161 447.137 781.309 447.58 772.857C447.921 766.356 450.614 758.511 455.659 749.322C460.704 740.134 467.093 730.201 474.824 719.523C482.555 708.846 491.107 698.048 500.481 687.131C509.871 675.888 519.074 665.125 528.088 654.84C537.102 644.556 545.578 635.221 553.515 626.836C561.469 618.126 567.712 610.956 572.245 605.327C567.643 606.063 561.715 607.219 554.461 608.795C547.549 610.062 540.312 611.313 532.75 612.546C525.188 613.779 517.797 614.859 510.578 615.784C503.7 616.401 497.823 616.582 492.947 616.327C489.046 616.122 484.692 615.242 479.884 613.686C475.093 611.805 470.49 609.445 466.075 606.606C461.986 603.783 458.409 600.499 455.346 596.753C452.608 593.024 451.358 588.884 451.597 584.333C451.903 578.481 454.785 573.254 460.242 568.65C465.716 563.722 472.781 559.529 481.438 556.071C490.111 552.288 499.726 549.207 510.281 546.826C520.854 544.121 531.23 542.057 541.41 540.635C551.607 538.888 561.282 537.765 570.435 537.267C579.588 536.769 586.928 536.665 592.454 536.955C598.63 537.279 606.073 538.321 614.782 540.081C623.491 541.842 631.823 544.561 639.78 548.237C648.061 551.931 654.983 556.695 660.544 562.528C666.106 568.361 668.665 575.503 668.222 583.955C668.086 586.556 667.633 588.977 666.863 591.218C666.436 593.152 665.829 595.402 665.043 597.968C664.273 600.21 661.075 605.257 655.448 613.112C650.162 620.658 643.492 629.761 635.436 640.422C627.721 650.774 619.144 662.059 609.702 674.277C600.602 686.187 591.862 697.463 583.481 708.107C575.099 718.75 567.761 728.144 561.467 736.29C555.173 744.435 550.973 749.919 548.87 752.742C562.385 749.865 576.029 747.647 589.801 746.087C603.916 744.22 617.8 743.644 631.453 744.359C634.704 744.53 638.921 744.914 644.105 745.512C649.289 746.11 654.277 747.349 659.068 749.23C663.876 750.786 667.991 753.12 671.413 756.234C674.853 759.022 676.445 762.854 676.189 767.73Z" fill="#606060"/>
</svg>
