<svg width="40" height="40" viewBox="0 0 40 40" fill="none" xmlns="http://www.w3.org/2000/svg">
<path d="M9.31592 3.61923C9.12604 1.89959 8.44571 -0.442081 11.4772 2.27595L9.31592 3.61923Z" fill="white" stroke="black"/>
<path d="M19.2999 3.56055C19.4999 2.49999 20.5 -7.53401e-08 21.5 3.99999L19.2999 3.56055Z" fill="white" stroke="black"/>
<path d="M5.20103 7.54044C3.5356 7.07184 1.33675 6.01765 3.52232 9.45295L5.20103 7.54044Z" fill="white" stroke="black"/>
<path d="M3.49435 16.3309C1.82152 16.7723 -0.608127 16.9799 3.01848 18.8307L3.49435 16.3309Z" fill="white" stroke="black"/>
<path d="M27 39C41.329 37.4427 40.7043 25.4928 38 22L24 9.5C25.5 2.5 18 2.5 16.5 5.5C16.5 3.49999 14 2 11.5 2.5C8.99999 3 7.99999 6 8.99999 8C8.83332 7.83333 5.99999 6.25 4.49999 8C1.49999 11.5 4.49999 14 4.99999 15C3.99999 16 3 16.5 3 19C3 21 5.5 24 8 23C11.8727 26.731 21 38 27 39Z" fill="white"/>
<path d="M33 17.5L20 34.5C21 35.3333 23.8 37.8 27 39C33 38 37.5 35.5 39 31C40.1031 27.6906 39.6667 24.5 38.5 22.5L33 17.5Z" fill="#ABABAB"/>
<path d="M21.5 26C22.3 31.6 17.8333 31.3333 16 31C16.3333 31.6667 21.5 36 21.5 36C25 36.5 26 33.5 25.5 31C29 32 31.5 29 30.5 25C34 25 34.6667 21.1667 34.5 19.5C33 18.5 31 15.7 29 14.5C29.5 17.5 28 19 26 19C28 23.5 23.5 26.5 21.5 26Z" fill="#D2D2D2" stroke="#D2D2D2" stroke-linejoin="round"/>
<path d="M27 39C41.329 37.4427 40.7043 25.4928 38 22L24 9.5C25.5 2.5 18 2.5 16.5 5.5C16.5 3.49999 14 2 11.5 2.5C8.99999 3 7.99999 6 8.99999 8C8.83332 7.83333 5.99999 6.25 4.49999 8C1.49999 11.5 4.49999 14 4.99999 15C3.99999 16 3 16.5 3 19C3 21 5.5 24 8 23C11.8727 26.731 21 38 27 39Z" stroke="black" stroke-linejoin="round"/>
<path d="M13.5947 13.0877C11.5947 14.6877 12.032 15.8384 12.5317 17.8383C12.8438 19.0878 12.2818 19.5878 12.0317 20.8383C11.5317 23.3383 17.095 26.5878 18.5946 22.5877C19.5942 18.5878 20.5946 19.5878 23.0946 18.5878C25.5946 17.5878 24.7228 13.9534 22.6286 12.588C21.0946 11.5878 19.595 13.0878 18.1286 12.588C17.6554 12.4267 16.0947 11.0877 13.5947 13.0877Z" fill="#F5BFBF" stroke="#F5BFBF"/>
<circle cx="7.5" cy="11.5" r="2.5" fill="#F5BFBF"/>
<circle cx="7.5" cy="18.5" r="2.5" fill="#F5BFBF"/>
<circle cx="12.5" cy="6.5" r="2.5" fill="#F5BFBF"/>
<circle cx="20.5" cy="7.5" r="2.5" fill="#F5BFBF"/>
</svg>
